<?xml version="1.0" encoding="UTF-8"?>
<svg width="711px" height="715px" viewBox="0 0 711 715" version="1.1" xmlns="http://www.w3.org/2000/svg" xmlns:xlink="http://www.w3.org/1999/xlink">
    <!-- Generator: Sketch 3.8.3 (29802) - http://www.bohemiancoding.com/sketch -->
    <title>awesomedjango</title>
    <desc>Created with Sketch.</desc>
    <defs>
        <polygon id="path-1" points="0 0.38 1000 0.38 1000 173.44 0 173.44"></polygon>
        <polygon id="path-3" points="0 0 1000 0 1000 459.38 0 459.38"></polygon>
    </defs>
    <g id="Page-1" stroke="none" stroke-width="1" fill="none" fill-rule="evenodd">
        <g id="awesomedjango" transform="translate(-145.000000, -120.000000)">
            <g id="Group" transform="translate(0.000000, 442.742000)">
                <g id="Clipped">
                    <mask id="mask-2" fill="white">
                        <use xlink:href="#path-1"></use>
                    </mask>
                    <g id="Shape"></g>
                    <g id="Group" mask="url(#mask-2)">
                        <g transform="translate(207.000000, -339.000000)" id="Shape">
                            <path d="M51.2,370.2 C55.2,370.2 58.5,371.6 61.3,374.4 C64.1,377.2 65.5,380.6 65.5,384.5 L65.5,434.1 L14.8,434.1 C10.8,434.1 7.5,432.7 4.7,429.9 C1.9,427.1 0.5,423.7 0.5,419.8 L0.5,396.2 L53.6,396.2 L53.6,384.5 C53.6,383.8 53.4,383.3 52.9,382.8 C52.4,382.3 51.9,382.1 51.2,382.1 L0.5,382.1 L0.5,370.2 L51.2,370.2 L51.2,370.2 Z M53.6,422.2 L53.6,408.1 L12.4,408.1 L12.4,419.8 C12.4,420.5 12.6,421 13.1,421.5 C13.6,422 14.1,422.2 14.8,422.2 L53.6,422.2 L53.6,422.2 Z M168.3,370.2 L181,370.2 L157,434.1 L147.3,434.1 L125.8,386.6 L105.5,434.1 L105.3,434 L105.4,434.1 L95.8,434.1 L70.7,370.2 L83.3,370.2 L100.6,412.6 L119,370.2 L132.6,370.2 L152.1,412.6 L168.3,370.2 L168.3,370.2 Z M235.5,370.2 C239.5,370.2 242.8,371.6 245.6,374.4 C248.4,377.2 249.8,380.6 249.8,384.5 L249.8,408.1 L196.7,408.1 L196.7,419.8 C196.7,420.5 196.9,421 197.4,421.5 C197.9,422 198.4,422.2 199.1,422.2 L249.8,422.2 L249.8,434.1 L199.1,434.1 C195.1,434.1 191.8,432.7 189,429.9 C186.2,427.1 184.8,423.7 184.8,419.8 L184.8,384.5 C184.8,380.5 186.2,377.2 189,374.4 C191.8,371.6 195.2,370.2 199.1,370.2 L235.5,370.2 L235.5,370.2 Z M196.7,396.2 L237.9,396.2 L237.9,384.5 C237.9,383.8 237.7,383.3 237.2,382.8 C236.7,382.3 236.2,382.1 235.5,382.1 L199.1,382.1 C198.4,382.1 197.9,382.3 197.4,382.8 C196.9,383.3 196.7,383.8 196.7,384.5 L196.7,396.2 L196.7,396.2 Z M325.7,384.6 L325.7,387 L313.8,387 L313.8,384.6 C313.8,383.9 313.6,383.4 313.1,382.9 C312.6,382.4 312.1,382.2 311.4,382.2 L275,382.2 C274.3,382.2 273.8,382.4 273.3,382.9 C272.8,383.4 272.6,383.9 272.6,384.6 L272.6,393.9 C272.6,394.6 272.8,395.1 273.3,395.6 C273.8,396.1 274.3,396.3 275,396.3 L311.4,396.3 C315.4,396.3 318.7,397.7 321.5,400.5 C324.3,403.3 325.7,406.7 325.7,410.6 L325.7,419.9 C325.7,423.9 324.3,427.2 321.5,430 C318.7,432.8 315.3,434.2 311.4,434.2 L275,434.2 C271,434.2 267.7,432.8 264.9,430 C262.1,427.2 260.7,423.8 260.7,419.9 L260.7,417.5 L272.6,417.5 L272.6,419.9 C272.6,420.6 272.8,421.1 273.3,421.6 C273.8,422.1 274.3,422.3 275,422.3 L311.4,422.3 C312.1,422.3 312.6,422.1 313.1,421.6 C313.6,421.1 313.8,420.6 313.8,419.9 L313.8,410.6 C313.8,409.9 313.6,409.4 313.1,408.9 C312.6,408.4 312.1,408.2 311.4,408.2 L275,408.2 C271,408.2 267.7,406.8 264.9,404 C262.1,401.2 260.7,397.8 260.7,393.9 L260.7,384.6 C260.7,380.6 262.1,377.3 264.9,374.5 C267.7,371.7 271.1,370.3 275,370.3 L311.4,370.3 C315.4,370.3 318.7,371.7 321.5,374.5 C324.3,377.2 325.7,380.6 325.7,384.6 L325.7,384.6 Z M350.9,370.2 L387.3,370.2 C391.3,370.2 394.6,371.6 397.4,374.4 C400.2,377.2 401.6,380.6 401.6,384.5 L401.6,419.8 C401.6,423.8 400.2,427.1 397.4,429.9 C394.6,432.7 391.2,434.1 387.3,434.1 L350.9,434.1 C346.9,434.1 343.6,432.7 340.8,429.9 C338,427.1 336.6,423.7 336.6,419.8 L336.6,384.5 C336.6,380.5 338,377.2 340.8,374.4 C343.6,371.6 347,370.2 350.9,370.2 L350.9,370.2 Z M387.3,382.1 L350.9,382.1 C350.2,382.1 349.7,382.3 349.2,382.8 C348.7,383.3 348.5,383.8 348.5,384.5 L348.5,419.8 C348.5,420.5 348.7,421 349.2,421.5 C349.7,422 350.2,422.2 350.9,422.2 L387.3,422.2 C388,422.2 388.5,422 389,421.5 C389.5,421 389.7,420.5 389.7,419.8 L389.7,384.5 C389.7,383.8 389.5,383.3 389,382.8 C388.5,382.4 388,382.1 387.3,382.1 L387.3,382.1 Z M494.8,370.2 C498.8,370.2 502.1,371.6 504.9,374.4 C507.7,377.2 509.1,380.6 509.1,384.5 L509.1,434.1 L497.3,434.1 L497.3,384.5 C497.3,383.8 497.1,383.3 496.6,382.8 C496.1,382.3 495.5,382.1 494.8,382.1 L469.6,382.1 C468.9,382.1 468.4,382.3 467.9,382.8 C467.4,383.3 467.2,383.8 467.2,384.5 L467.2,434.1 L455.3,434.1 L455.3,384.5 C455.3,383.8 455.1,383.3 454.6,382.8 C454.1,382.3 453.6,382.1 452.9,382.1 L427.6,382.1 C426.9,382.1 426.4,382.3 425.9,382.8 C425.4,383.3 425.2,383.8 425.2,384.5 L425.2,434.1 L413.3,434.1 L413.3,370.2 L494.8,370.2 L494.8,370.2 Z M571.3,370.2 C575.3,370.2 578.6,371.6 581.4,374.4 C584.2,377.2 585.6,380.6 585.6,384.5 L585.6,408.1 L532.5,408.1 L532.5,419.8 C532.5,420.5 532.7,421 533.2,421.5 C533.7,422 534.2,422.2 534.9,422.2 L585.6,422.2 L585.6,434.1 L534.9,434.1 C530.9,434.1 527.6,432.7 524.8,429.9 C522,427.1 520.6,423.7 520.6,419.8 L520.6,384.5 C520.6,380.5 522,377.2 524.8,374.4 C527.6,371.6 531,370.2 534.9,370.2 L571.3,370.2 L571.3,370.2 Z M532.5,396.2 L573.7,396.2 L573.7,384.5 C573.7,383.8 573.5,383.3 573,382.8 C572.5,382.3 572,382.1 571.3,382.1 L534.9,382.1 C534.2,382.1 533.7,382.3 533.2,382.8 C532.7,383.3 532.5,383.8 532.5,384.5 L532.5,396.2 L532.5,396.2 Z" fill="#494368"></path>
                            <path d="M585.5,138.1 L435.5,0.5 L414.4,23.5 L539.4,138.1 L46.7,138.1 L171.7,23.4 L150.6,0.4 L0.6,138.1 L0.5,138.1 L0.5,228.8 C0.5,269.8 40,303.2 88.5,303.2 L181,303.2 C229.5,303.2 269,269.8 269,228.8 L269,169.2 L317,169.2 L317,228.8 C317,269.8 356.5,303.2 405,303.2 L497.5,303.2 C546,303.2 585.5,269.8 585.5,228.8 L585.5,138.1 L585.5,138.1 Z" fill="#FC60A8"></path>
                        </g>
                    </g>
                </g>
            </g>
            <g id="Group" transform="translate(0.000000, 0.485000)">
                <g id="Clipped">
                    <mask id="mask-4" fill="white">
                        <use xlink:href="#path-3"></use>
                    </mask>
                    <g id="Shape"></g>
                    <g id="Group" mask="url(#mask-4)">
                        <g transform="translate(207.000000, 120.000000)" id="Shape">
                            <path d="M51.2,370.2 C55.2,370.2 58.5,371.6 61.3,374.4 C64.1,377.2 65.5,380.6 65.5,384.5 L65.5,434.1 L14.8,434.1 C10.8,434.1 7.5,432.7 4.7,429.9 C1.9,427.1 0.5,423.7 0.5,419.8 L0.5,396.2 L53.6,396.2 L53.6,384.5 C53.6,383.8 53.4,383.3 52.9,382.8 C52.4,382.3 51.9,382.1 51.2,382.1 L0.5,382.1 L0.5,370.2 L51.2,370.2 L51.2,370.2 Z M53.6,422.2 L53.6,408.1 L12.4,408.1 L12.4,419.8 C12.4,420.5 12.6,421 13.1,421.5 C13.6,422 14.1,422.2 14.8,422.2 L53.6,422.2 L53.6,422.2 Z M168.3,370.2 L181,370.2 L157,434.1 L147.3,434.1 L125.8,386.6 L105.5,434.1 L105.3,434 L105.4,434.1 L95.8,434.1 L70.7,370.2 L83.3,370.2 L100.6,412.6 L119,370.2 L132.6,370.2 L152.1,412.6 L168.3,370.2 L168.3,370.2 Z M235.5,370.2 C239.5,370.2 242.8,371.6 245.6,374.4 C248.4,377.2 249.8,380.6 249.8,384.5 L249.8,408.1 L196.7,408.1 L196.7,419.8 C196.7,420.5 196.9,421 197.4,421.5 C197.9,422 198.4,422.2 199.1,422.2 L249.8,422.2 L249.8,434.1 L199.1,434.1 C195.1,434.1 191.8,432.7 189,429.9 C186.2,427.1 184.8,423.7 184.8,419.8 L184.8,384.5 C184.8,380.5 186.2,377.2 189,374.4 C191.8,371.6 195.2,370.2 199.1,370.2 L235.5,370.2 L235.5,370.2 Z M196.7,396.2 L237.9,396.2 L237.9,384.5 C237.9,383.8 237.7,383.3 237.2,382.8 C236.7,382.3 236.2,382.1 235.5,382.1 L199.1,382.1 C198.4,382.1 197.9,382.3 197.4,382.8 C196.9,383.3 196.7,383.8 196.7,384.5 L196.7,396.2 L196.7,396.2 Z M325.7,384.6 L325.7,387 L313.8,387 L313.8,384.6 C313.8,383.9 313.6,383.4 313.1,382.9 C312.6,382.4 312.1,382.2 311.4,382.2 L275,382.2 C274.3,382.2 273.8,382.4 273.3,382.9 C272.8,383.4 272.6,383.9 272.6,384.6 L272.6,393.9 C272.6,394.6 272.8,395.1 273.3,395.6 C273.8,396.1 274.3,396.3 275,396.3 L311.4,396.3 C315.4,396.3 318.7,397.7 321.5,400.5 C324.3,403.3 325.7,406.7 325.7,410.6 L325.7,419.9 C325.7,423.9 324.3,427.2 321.5,430 C318.7,432.8 315.3,434.2 311.4,434.2 L275,434.2 C271,434.2 267.7,432.8 264.9,430 C262.1,427.2 260.7,423.8 260.7,419.9 L260.7,417.5 L272.6,417.5 L272.6,419.9 C272.6,420.6 272.8,421.1 273.3,421.6 C273.8,422.1 274.3,422.3 275,422.3 L311.4,422.3 C312.1,422.3 312.6,422.1 313.1,421.6 C313.6,421.1 313.8,420.6 313.8,419.9 L313.8,410.6 C313.8,409.9 313.6,409.4 313.1,408.9 C312.6,408.4 312.1,408.2 311.4,408.2 L275,408.2 C271,408.2 267.7,406.8 264.9,404 C262.1,401.2 260.7,397.8 260.7,393.9 L260.7,384.6 C260.7,380.6 262.1,377.3 264.9,374.5 C267.7,371.7 271.1,370.3 275,370.3 L311.4,370.3 C315.4,370.3 318.7,371.7 321.5,374.5 C324.3,377.2 325.7,380.6 325.7,384.6 L325.7,384.6 Z M350.9,370.2 L387.3,370.2 C391.3,370.2 394.6,371.6 397.4,374.4 C400.2,377.2 401.6,380.6 401.6,384.5 L401.6,419.8 C401.6,423.8 400.2,427.1 397.4,429.9 C394.6,432.7 391.2,434.1 387.3,434.1 L350.9,434.1 C346.9,434.1 343.6,432.7 340.8,429.9 C338,427.1 336.6,423.7 336.6,419.8 L336.6,384.5 C336.6,380.5 338,377.2 340.8,374.4 C343.6,371.6 347,370.2 350.9,370.2 L350.9,370.2 Z M387.3,382.1 L350.9,382.1 C350.2,382.1 349.7,382.3 349.2,382.8 C348.7,383.3 348.5,383.8 348.5,384.5 L348.5,419.8 C348.5,420.5 348.7,421 349.2,421.5 C349.7,422 350.2,422.2 350.9,422.2 L387.3,422.2 C388,422.2 388.5,422 389,421.5 C389.5,421 389.7,420.5 389.7,419.8 L389.7,384.5 C389.7,383.8 389.5,383.3 389,382.8 C388.5,382.4 388,382.1 387.3,382.1 L387.3,382.1 Z M494.8,370.2 C498.8,370.2 502.1,371.6 504.9,374.4 C507.7,377.2 509.1,380.6 509.1,384.5 L509.1,434.1 L497.3,434.1 L497.3,384.5 C497.3,383.8 497.1,383.3 496.6,382.8 C496.1,382.3 495.5,382.1 494.8,382.1 L469.6,382.1 C468.9,382.1 468.4,382.3 467.9,382.8 C467.4,383.3 467.2,383.8 467.2,384.5 L467.2,434.1 L455.3,434.1 L455.3,384.5 C455.3,383.8 455.1,383.3 454.6,382.8 C454.1,382.3 453.6,382.1 452.9,382.1 L427.6,382.1 C426.9,382.1 426.4,382.3 425.9,382.8 C425.4,383.3 425.2,383.8 425.2,384.5 L425.2,434.1 L413.3,434.1 L413.3,370.2 L494.8,370.2 L494.8,370.2 Z M571.3,370.2 C575.3,370.2 578.6,371.6 581.4,374.4 C584.2,377.2 585.6,380.6 585.6,384.5 L585.6,408.1 L532.5,408.1 L532.5,419.8 C532.5,420.5 532.7,421 533.2,421.5 C533.7,422 534.2,422.2 534.9,422.2 L585.6,422.2 L585.6,434.1 L534.9,434.1 C530.9,434.1 527.6,432.7 524.8,429.9 C522,427.1 520.6,423.7 520.6,419.8 L520.6,384.5 C520.6,380.5 522,377.2 524.8,374.4 C527.6,371.6 531,370.2 534.9,370.2 L571.3,370.2 L571.3,370.2 Z M532.5,396.2 L573.7,396.2 L573.7,384.5 C573.7,383.8 573.5,383.3 573,382.8 C572.5,382.3 572,382.1 571.3,382.1 L534.9,382.1 C534.2,382.1 533.7,382.3 533.2,382.8 C532.7,383.3 532.5,383.8 532.5,384.5 L532.5,396.2 L532.5,396.2 Z" fill="#494368"></path>
                            <path d="M585.5,138.1 L435.5,0.5 L414.4,23.5 L539.4,138.1 L46.7,138.1 L171.7,23.4 L150.6,0.4 L0.6,138.1 L0.5,138.1 L0.5,228.8 C0.5,269.8 40,303.2 88.5,303.2 L181,303.2 C229.5,303.2 269,269.8 269,228.8 L269,169.2 L317,169.2 L317,228.8 C317,269.8 356.5,303.2 405,303.2 L497.5,303.2 C546,303.2 585.5,269.8 585.5,228.8 L585.5,138.1 L585.5,138.1 Z" fill="#FC60A8"></path>
                        </g>
                    </g>
                </g>
            </g>
            <g id="django-logo-positive" transform="translate(145.000000, 587.000000)" fill="#092E20">
                <g id="Layer_1">
                    <g id="Group">
                        <path d="M83.7320458,0 L122.571844,0 L122.571844,179.104627 C102.647574,182.873255 88.0191968,184.380706 72.1315195,184.380706 C24.7157918,184.379085 0,163.02515 0,122.067869 C0,82.6196601 26.2305309,56.9929935 66.834,56.9929935 C73.1386339,56.9929935 77.9301556,57.4938562 83.7320458,59.0013072 L83.7320458,0 L83.7320458,0 Z M83.7320458,90.1552941 C79.1927094,88.6494641 75.4099291,88.1469804 70.6184073,88.1469804 C50.9463227,88.1469804 39.5963547,100.208209 39.5963547,121.312523 C39.5963547,141.917595 50.4419519,153.223477 70.366222,153.223477 C74.651746,153.223477 78.183968,152.972235 83.7320458,152.220131 L83.7320458,90.1552941 L83.7320458,90.1552941 Z" id="Shape"></path>
                        <path d="M184.358883,59.7550327 L184.358883,149.453229 C184.358883,180.359216 182.089215,195.182484 175.280211,207.997438 C168.97395,220.311529 160.650206,228.098405 143.501602,236.642248 L107.435842,219.556183 C124.586073,211.516444 132.90819,204.483294 138.204082,193.675033 C143.753787,182.620392 145.520712,169.805438 145.520712,136.137412 L145.520712,59.7550327 L184.358883,59.7550327 L184.358883,59.7550327 Z M145.520712,0.205856209 L184.358883,0.205856209 L184.358883,39.9053072 L145.520712,39.9053072 L145.520712,0.205856209 L145.520712,0.205856209 Z" id="Shape"></path>
                        <path d="M207.818629,68.5484967 C224.970487,60.5103791 241.362535,56.9929935 259.269323,56.9929935 C279.193593,56.9929935 292.307231,62.267451 298.109121,72.5699869 C301.385904,78.348549 302.394645,85.8858039 302.394645,101.968523 L302.394645,180.610458 C284.990602,183.122876 263.050476,184.88319 246.910613,184.88319 C214.377076,184.88319 199.747071,173.572444 199.747071,148.448261 C199.747071,121.310902 219.16697,108.74881 266.834883,104.72732 L266.834883,96.185098 C266.834883,89.1503268 263.304288,86.6395294 253.467432,86.6395294 C239.092867,86.6395294 222.951378,90.6593987 207.817002,98.4495163 L207.817002,68.5484967 L207.818629,68.5484967 Z M268.600181,130.107608 C242.874021,132.620026 234.551904,136.641516 234.551904,146.69119 C234.551904,154.228444 239.345053,157.74583 249.936838,157.74583 C255.738728,157.74583 261.032993,157.244967 268.600181,155.988758 L268.600181,130.107608 L268.600181,130.107608 Z" id="Shape"></path>
                        <path d="M321.311801,65.7848366 C344.260668,59.7550327 363.176197,56.9929935 382.343911,56.9929935 C402.268181,56.9929935 416.644373,61.5137255 425.221929,70.3088105 C433.29186,78.5981699 435.812087,87.6428758 435.812087,106.993359 L435.812087,182.871634 L396.972288,182.871634 L396.972288,108.50081 C396.972288,93.6775425 391.928581,88.1469804 378.058387,88.1469804 C372.762494,88.1469804 367.970973,88.6494641 360.149973,90.9106405 L360.149973,182.871634 L321.311801,182.871634 L321.311801,65.7848366 L321.311801,65.7848366 Z" id="Shape"></path>
                        <path d="M450.910668,203.97919 C464.531931,211.013961 478.149941,214.278484 492.524506,214.278484 C517.995227,214.278484 528.840824,203.97919 528.840824,179.354248 L528.840824,178.600523 C521.275263,182.367529 513.708076,183.876601 503.622288,183.876601 C469.574011,183.876601 447.88119,161.514458 447.88119,126.087739 C447.88119,82.1139346 479.913611,57.2426144 536.656943,57.2426144 C553.30443,57.2426144 568.689364,58.9996863 587.352707,62.7683137 L574.05359,90.6788497 C563.712364,88.668915 573.225446,90.4097778 565.410954,89.6560523 L565.410954,93.6775425 L565.913698,110.006641 L566.164256,131.114196 C566.416442,136.388654 566.416442,141.666353 566.670254,146.942431 L566.670254,157.496209 C566.670254,190.663373 563.896215,206.240366 555.574098,219.053699 C543.467574,237.900078 522.534563,247.196026 492.775064,247.196026 C477.642316,247.196026 464.530304,244.93485 450.909041,239.65715 L450.909041,203.97919 L450.910668,203.97919 Z M528.085895,88.3982222 L526.826595,88.3982222 L524.050929,88.3982222 C516.486995,88.1469804 507.660508,90.1552941 501.604805,93.9239216 C492.275574,99.2016209 487.480799,108.750431 487.480799,122.31749 C487.480799,141.666353 497.067096,152.720993 514.2157,152.720993 C519.511593,152.720993 523.800371,151.714405 528.842451,150.208575 L528.842451,147.443294 L528.842451,136.892758 C528.842451,132.370405 528.591892,127.342327 528.591892,122.067869 L528.341334,104.229699 L528.087522,91.4147451 L528.087522,88.3982222 L528.085895,88.3982222 Z" id="Shape"></path>
                        <path d="M647.647785,56.4888889 C686.485957,56.4888889 710.194634,80.8625882 710.194634,120.309176 C710.194634,160.763974 685.480469,186.14102 646.134673,186.14102 C607.293247,186.14102 583.334011,161.76732 583.334011,122.571974 C583.335638,81.8643137 608.053057,56.4888889 647.647785,56.4888889 L647.647785,56.4888889 Z M646.887975,154.98217 C661.770165,154.98217 670.598279,142.669699 670.598279,121.312523 C670.598279,100.208209 662.02235,87.6444967 647.145041,87.6444967 C631.758481,87.6444967 622.928739,99.9585882 622.928739,121.312523 C622.930366,142.67132 631.758481,154.98217 646.887975,154.98217 L646.887975,154.98217 Z" id="Shape"></path>
                    </g>
                </g>
            </g>
        </g>
    </g>
</svg>